<svg id="svg" version="1.1" xmlns="http://www.w3.org/2000/svg" xmlns:xlink="http://www.w3.org/1999/xlink" width="400" height="300" viewBox="0, 0, 400,300"><g id="svgg"><path id="path0" d="M195.169 17.328 C 195.466 17.373,195.905 17.371,196.145 17.325 C 196.385 17.279,196.143 17.242,195.605 17.243 C 195.068 17.245,194.872 17.283,195.169 17.328 M188.625 17.521 C 188.868 17.568,189.220 17.566,189.407 17.517 C 189.593 17.468,189.395 17.430,188.965 17.432 C 188.535 17.434,188.382 17.474,188.625 17.521 M200.928 17.521 C 201.169 17.567,201.565 17.567,201.807 17.521 C 202.048 17.474,201.851 17.436,201.367 17.436 C 200.884 17.436,200.686 17.474,200.928 17.521 M204.446 17.716 C 204.689 17.763,205.040 17.761,205.227 17.712 C 205.414 17.663,205.215 17.625,204.785 17.627 C 204.355 17.630,204.203 17.670,204.446 17.716 M207.080 17.908 C 207.268 17.957,207.576 17.957,207.764 17.908 C 207.952 17.859,207.798 17.819,207.422 17.819 C 207.046 17.819,206.892 17.859,207.080 17.908 M106.731 53.955 L 105.762 54.980 106.787 54.011 C 107.740 53.111,107.902 52.930,107.756 52.930 C 107.725 52.930,107.264 53.391,106.731 53.955 M104.290 56.396 L 103.223 57.520 104.346 56.452 C 105.389 55.460,105.558 55.273,105.413 55.273 C 105.383 55.273,104.877 55.779,104.290 56.396 M225.000 62.881 C 224.624 62.961,223.701 63.142,222.949 63.282 C 222.197 63.422,221.450 63.609,221.289 63.697 C 221.128 63.786,220.322 64.077,219.498 64.344 C 218.674 64.612,217.707 65.009,217.350 65.227 C 216.992 65.445,216.558 65.624,216.385 65.624 C 216.212 65.625,215.766 65.831,215.395 66.083 C 215.024 66.335,214.504 66.595,214.241 66.662 C 213.977 66.728,213.569 66.961,213.334 67.180 C 213.099 67.399,212.837 67.581,212.752 67.584 C 212.575 67.590,210.527 68.924,209.690 69.579 C 207.075 71.625,203.538 75.385,202.432 77.295 C 202.230 77.644,202.006 77.930,201.934 77.930 C 201.862 77.930,201.750 78.083,201.686 78.271 C 201.621 78.459,201.405 78.877,201.207 79.199 C 200.403 80.503,198.633 84.028,198.633 84.325 C 198.633 84.499,198.438 85.044,198.201 85.534 C 197.964 86.024,197.712 86.821,197.641 87.305 C 197.571 87.788,197.357 88.711,197.165 89.355 C 196.912 90.208,196.793 91.446,196.729 93.896 L 196.641 97.266 199.507 97.266 C 202.045 97.266,202.539 97.210,203.827 96.777 C 204.627 96.509,205.434 96.289,205.619 96.288 C 205.805 96.288,206.484 96.025,207.129 95.703 C 207.773 95.382,208.441 95.118,208.612 95.118 C 208.784 95.118,209.083 94.941,209.277 94.727 C 209.472 94.512,209.743 94.336,209.880 94.336 C 210.016 94.336,210.249 94.215,210.396 94.068 C 210.543 93.921,210.967 93.646,211.338 93.456 C 211.708 93.266,212.082 92.991,212.168 92.845 C 212.254 92.698,212.417 92.578,212.531 92.578 C 212.811 92.578,215.234 90.637,215.234 90.413 C 215.234 90.315,215.364 90.234,215.523 90.234 C 215.681 90.234,215.955 90.015,216.131 89.746 C 216.307 89.478,216.563 89.258,216.699 89.258 C 216.836 89.258,217.103 89.016,217.293 88.721 C 217.603 88.238,218.243 87.511,219.457 86.265 C 220.091 85.614,221.289 84.003,221.289 83.802 C 221.289 83.703,221.509 83.449,221.777 83.238 C 222.046 83.027,222.266 82.778,222.266 82.684 C 222.266 82.591,222.573 82.058,222.949 81.499 C 223.325 80.941,223.633 80.360,223.633 80.207 C 223.633 80.055,223.766 79.820,223.929 79.685 C 224.093 79.549,224.363 79.121,224.530 78.733 C 224.697 78.345,224.957 77.740,225.107 77.390 C 225.257 77.039,225.504 76.468,225.655 76.120 C 225.806 75.773,226.039 75.093,226.173 74.609 C 226.307 74.126,226.573 73.247,226.765 72.656 C 227.315 70.959,227.737 64.906,227.417 63.306 C 227.284 62.641,226.645 62.529,225.000 62.881 M221.973 97.601 C 221.650 97.646,220.600 97.853,219.638 98.060 C 218.676 98.268,217.603 98.438,217.253 98.438 C 216.903 98.438,216.151 98.610,215.583 98.820 C 215.016 99.030,214.111 99.297,213.574 99.413 C 212.725 99.596,211.373 100.055,210.059 100.607 C 209.844 100.697,209.009 100.998,208.203 101.275 C 207.397 101.552,205.991 102.046,205.078 102.373 C 204.165 102.700,202.842 103.126,202.137 103.321 C 201.433 103.515,200.510 103.822,200.087 104.002 C 198.791 104.554,196.591 104.598,195.215 104.100 C 194.570 103.866,193.560 103.558,192.969 103.416 C 191.598 103.084,188.972 102.196,188.086 101.765 C 187.710 101.582,187.007 101.320,186.523 101.182 C 186.040 101.045,185.469 100.857,185.254 100.764 C 184.343 100.373,183.028 99.940,181.934 99.670 C 181.289 99.512,180.234 99.200,179.590 98.978 C 178.945 98.756,177.803 98.505,177.051 98.422 C 176.299 98.338,174.973 98.181,174.104 98.073 C 173.079 97.945,171.880 97.941,170.686 98.060 C 169.675 98.161,168.013 98.323,166.992 98.420 C 165.972 98.516,164.653 98.771,164.063 98.986 C 163.472 99.202,162.681 99.430,162.305 99.494 C 161.929 99.558,160.978 99.873,160.191 100.193 C 157.425 101.321,156.863 101.582,155.566 102.343 C 155.029 102.658,154.135 103.146,153.579 103.427 C 153.023 103.708,152.521 104.063,152.462 104.215 C 152.404 104.367,152.212 104.492,152.036 104.492 C 151.860 104.492,151.544 104.712,151.332 104.980 C 151.121 105.249,150.861 105.469,150.754 105.469 C 150.362 105.469,145.508 109.947,145.508 110.309 C 145.508 110.415,145.303 110.636,145.054 110.799 C 144.804 110.963,144.216 111.676,143.747 112.384 C 143.278 113.093,142.827 113.672,142.745 113.672 C 142.664 113.672,142.452 113.975,142.276 114.346 C 142.100 114.718,141.832 115.124,141.681 115.249 C 141.530 115.375,141.406 115.570,141.406 115.682 C 141.406 115.795,141.281 116.026,141.129 116.196 C 140.708 116.664,138.733 120.523,138.256 121.811 C 138.024 122.437,137.715 123.123,137.569 123.334 C 137.424 123.546,137.305 123.908,137.305 124.138 C 137.305 124.368,137.041 125.195,136.719 125.977 C 136.396 126.758,136.133 127.648,136.133 127.954 C 136.133 128.259,135.921 129.241,135.662 130.134 C 134.257 134.982,134.211 149.591,135.583 154.980 C 135.802 155.840,136.054 157.158,136.142 157.910 C 136.230 158.662,136.528 159.937,136.802 160.742 C 137.077 161.548,137.303 162.407,137.303 162.650 C 137.305 163.090,138.178 165.999,138.872 167.871 C 139.071 168.408,139.365 169.287,139.526 169.824 C 139.976 171.326,141.079 174.113,141.252 174.186 C 141.337 174.222,141.406 174.413,141.406 174.610 C 141.406 174.807,141.534 175.217,141.690 175.521 C 141.846 175.825,142.291 176.777,142.680 177.637 C 143.068 178.496,143.509 179.419,143.660 179.688 C 143.810 179.956,144.033 180.396,144.155 180.664 C 144.611 181.667,144.963 182.356,145.602 183.496 C 145.963 184.141,146.346 184.853,146.453 185.079 C 146.709 185.619,147.896 187.509,148.850 188.898 C 149.268 189.506,149.609 190.096,149.609 190.210 C 149.609 190.323,149.785 190.510,150.000 190.625 C 150.215 190.740,150.391 190.947,150.391 191.085 C 150.391 191.223,150.654 191.631,150.977 191.992 C 151.299 192.353,151.563 192.749,151.563 192.872 C 151.563 192.995,151.782 193.302,152.051 193.555 C 152.319 193.807,152.539 194.097,152.539 194.200 C 152.539 194.379,153.085 195.074,154.443 196.623 C 154.792 197.021,155.078 197.461,155.078 197.599 C 155.078 197.738,155.210 197.852,155.371 197.852 C 155.532 197.852,155.664 197.952,155.664 198.074 C 155.664 198.707,161.820 204.985,163.555 206.122 C 163.804 206.285,164.139 206.550,164.300 206.710 C 164.460 206.871,164.912 207.136,165.304 207.300 C 165.695 207.463,166.016 207.690,166.016 207.803 C 166.016 207.915,166.118 208.008,166.243 208.008 C 166.607 208.008,167.969 208.654,167.969 208.827 C 167.969 208.913,168.171 208.984,168.418 208.984 C 168.665 208.984,168.951 209.061,169.053 209.155 C 169.919 209.953,175.168 210.188,178.027 209.558 C 180.695 208.970,181.022 208.881,182.813 208.250 C 185.846 207.182,186.418 206.966,187.422 206.509 C 187.970 206.259,188.610 206.055,188.844 206.055 C 189.079 206.055,189.597 205.914,189.997 205.742 C 191.248 205.204,191.858 205.032,193.066 204.878 C 193.711 204.796,194.941 204.591,195.801 204.422 C 198.013 203.988,201.428 204.018,203.711 204.492 C 204.731 204.704,205.874 204.881,206.250 204.886 C 206.626 204.890,207.546 205.155,208.295 205.474 C 209.044 205.793,209.879 206.056,210.151 206.057 C 210.422 206.058,211.002 206.264,211.439 206.514 C 211.876 206.764,212.533 207.028,212.899 207.101 C 213.265 207.175,213.919 207.405,214.351 207.613 C 214.783 207.821,215.620 208.121,216.211 208.280 C 216.802 208.438,217.549 208.657,217.871 208.765 C 222.150 210.201,226.969 210.211,230.566 208.791 C 231.801 208.304,234.543 206.870,234.959 206.494 C 235.226 206.252,235.553 206.055,235.686 206.055 C 235.818 206.055,236.121 205.791,236.359 205.469 C 236.597 205.146,236.954 204.883,237.151 204.883 C 237.354 204.883,237.590 204.671,237.695 204.395 C 237.797 204.126,237.974 203.906,238.087 203.906 C 238.579 203.906,244.922 196.675,244.922 196.114 C 244.922 196.003,245.105 195.814,245.328 195.695 C 245.551 195.575,245.824 195.221,245.933 194.907 C 246.042 194.593,246.208 194.336,246.300 194.336 C 246.392 194.336,246.700 193.940,246.983 193.457 C 247.266 192.974,247.578 192.578,247.675 192.578 C 247.772 192.578,247.852 192.494,247.852 192.391 C 247.852 192.200,248.263 191.568,249.370 190.059 C 249.716 189.586,250.000 189.078,250.000 188.929 C 250.000 188.781,250.125 188.611,250.279 188.553 C 250.432 188.494,250.746 188.079,250.976 187.631 C 251.206 187.183,251.685 186.289,252.040 185.645 C 252.395 185.000,252.914 184.033,253.193 183.496 C 253.472 182.959,253.777 182.388,253.870 182.227 C 254.089 181.846,255.253 179.403,256.102 177.539 C 256.469 176.733,256.884 175.657,257.023 175.146 C 257.163 174.636,257.342 174.219,257.421 174.219 C 257.499 174.219,257.715 173.713,257.899 173.096 C 258.084 172.478,258.317 171.715,258.417 171.400 C 258.630 170.727,258.723 170.808,256.393 169.635 C 255.451 169.161,254.451 168.592,254.169 168.371 C 253.888 168.150,253.543 167.969,253.401 167.969 C 253.260 167.969,253.074 167.847,252.988 167.698 C 252.902 167.549,252.253 167.032,251.546 166.549 C 250.839 166.067,250.042 165.464,249.776 165.209 C 246.819 162.379,246.094 161.651,246.094 161.513 C 246.094 161.423,245.940 161.235,245.752 161.095 C 245.339 160.787,243.750 158.680,243.750 158.441 C 243.750 158.348,243.530 158.065,243.262 157.813 C 242.993 157.560,242.773 157.258,242.773 157.140 C 242.773 157.023,242.570 156.621,242.321 156.247 C 242.072 155.872,241.750 155.259,241.605 154.883 C 241.460 154.507,241.224 154.060,241.081 153.890 C 240.651 153.383,239.428 149.652,239.036 147.656 C 237.736 141.031,238.293 133.156,240.411 128.223 C 241.198 126.389,242.868 123.340,243.399 122.766 C 243.592 122.558,243.750 122.294,243.751 122.180 C 243.751 122.066,243.998 121.709,244.299 121.387 C 244.599 121.064,244.907 120.639,244.982 120.440 C 245.058 120.242,245.287 120.036,245.492 119.983 C 245.697 119.929,245.917 119.679,245.980 119.428 C 246.043 119.177,246.270 118.916,246.485 118.848 C 246.699 118.779,246.875 118.649,246.875 118.558 C 246.875 118.362,248.064 117.223,249.902 115.658 C 250.117 115.475,250.667 115.073,251.123 114.765 C 251.580 114.457,251.953 114.135,251.953 114.049 C 251.953 113.964,252.151 113.832,252.393 113.756 C 252.634 113.681,253.042 113.411,253.298 113.157 C 253.554 112.903,253.862 112.694,253.982 112.692 C 255.080 112.677,254.734 111.942,252.490 109.532 C 252.195 109.214,251.953 108.916,251.953 108.868 C 251.953 108.821,251.656 108.498,251.292 108.151 C 250.929 107.804,250.147 107.058,249.555 106.494 C 248.964 105.930,248.387 105.469,248.273 105.469 C 248.159 105.469,247.996 105.350,247.910 105.204 C 247.753 104.939,246.543 104.083,245.490 103.493 C 245.180 103.319,244.787 103.061,244.616 102.919 C 243.542 102.027,239.622 100.294,237.109 99.600 C 236.411 99.407,235.444 99.104,234.961 98.927 C 234.478 98.750,233.423 98.530,232.617 98.437 C 231.812 98.345,230.142 98.088,228.906 97.866 C 226.812 97.491,223.635 97.369,221.973 97.601 M325.245 142.871 C 325.247 143.301,325.287 143.454,325.333 143.211 C 325.380 142.968,325.378 142.616,325.330 142.429 C 325.281 142.243,325.242 142.441,325.245 142.871 M67.846 146.191 C 67.847 147.373,67.879 147.831,67.918 147.210 C 67.957 146.588,67.957 145.621,67.917 145.061 C 67.878 144.501,67.846 145.010,67.846 146.191 M325.241 148.047 C 325.241 148.423,325.281 148.577,325.330 148.389 C 325.379 148.201,325.379 147.893,325.330 147.705 C 325.281 147.517,325.241 147.671,325.241 148.047 " stroke="none" fill="#fcfbfb" fill-rule="evenodd"></path><path id="path1" d="M192.133 17.307 C 192.061 17.380,191.055 17.464,189.897 17.496 C 187.101 17.571,182.910 17.860,182.910 17.977 C 182.910 17.996,182.515 18.042,182.031 18.080 C 180.594 18.193,179.264 18.346,178.174 18.524 C 177.610 18.616,177.148 18.644,177.148 18.586 C 177.148 18.528,177.039 18.619,176.904 18.789 C 176.770 18.958,176.309 19.154,175.879 19.225 C 173.858 19.554,170.643 20.179,169.141 20.534 C 168.228 20.749,167.232 20.963,166.928 21.008 C 166.624 21.053,166.295 21.140,166.196 21.200 C 166.098 21.261,165.841 21.350,165.626 21.398 C 165.410 21.445,165.037 21.529,164.795 21.584 C 164.553 21.639,164.104 21.730,163.796 21.786 C 163.488 21.842,162.961 22.003,162.624 22.144 C 162.121 22.354,160.885 22.673,160.319 22.739 C 160.247 22.747,160.123 22.820,160.042 22.900 C 159.962 22.981,159.696 23.047,159.452 23.047 C 159.207 23.047,158.957 23.129,158.894 23.230 C 158.832 23.330,158.629 23.407,158.443 23.401 C 158.258 23.395,156.963 23.797,155.566 24.295 C 154.170 24.792,152.896 25.235,152.734 25.278 C 152.573 25.321,152.178 25.466,151.855 25.601 C 151.533 25.736,151.226 25.863,151.172 25.884 C 151.118 25.905,150.789 25.989,150.439 26.071 C 150.090 26.153,149.805 26.303,149.805 26.403 C 149.805 26.503,149.737 26.544,149.654 26.492 C 149.571 26.441,149.065 26.611,148.531 26.870 C 147.996 27.128,147.465 27.341,147.351 27.342 C 147.237 27.343,146.696 27.560,146.148 27.824 C 145.601 28.088,144.929 28.360,144.655 28.429 C 144.381 28.498,144.054 28.677,143.929 28.828 C 143.804 28.978,143.552 29.102,143.368 29.102 C 143.184 29.102,142.973 29.163,142.898 29.237 C 142.823 29.312,142.636 29.392,142.482 29.414 C 142.328 29.437,141.943 29.640,141.627 29.864 C 141.311 30.089,140.988 30.273,140.908 30.273 C 140.714 30.273,137.819 31.664,137.695 31.817 C 137.642 31.883,137.114 32.155,136.523 32.422 C 135.933 32.688,135.058 33.148,134.581 33.445 C 134.103 33.742,133.612 33.984,133.488 33.984 C 133.365 33.984,133.105 34.160,132.910 34.375 C 132.716 34.590,132.447 34.766,132.312 34.766 C 132.178 34.766,131.466 35.161,130.731 35.644 C 129.996 36.127,129.285 36.523,129.150 36.523 C 129.016 36.523,128.906 36.594,128.906 36.681 C 128.906 36.768,128.548 36.997,128.111 37.190 C 127.674 37.383,127.269 37.663,127.211 37.813 C 127.154 37.963,127.023 38.086,126.922 38.086 C 126.688 38.086,124.339 39.663,124.251 39.879 C 124.215 39.967,124.062 40.039,123.910 40.039 C 123.757 40.039,123.633 40.116,123.633 40.211 C 123.633 40.305,123.358 40.496,123.022 40.635 C 122.685 40.775,122.206 41.093,121.956 41.343 C 121.706 41.593,121.450 41.797,121.387 41.797 C 121.273 41.797,120.972 42.027,120.369 42.578 C 120.192 42.739,120.008 42.838,119.961 42.797 C 119.913 42.756,119.629 42.954,119.329 43.236 C 119.030 43.519,118.689 43.750,118.572 43.750 C 118.455 43.750,118.359 43.841,118.359 43.951 C 118.359 44.062,118.206 44.211,118.018 44.282 C 117.830 44.353,117.580 44.505,117.463 44.618 C 117.345 44.731,116.956 45.044,116.597 45.313 C 116.238 45.581,115.697 46.040,115.394 46.331 C 115.091 46.623,114.844 46.818,114.844 46.764 C 114.844 46.710,114.580 46.936,114.258 47.266 C 113.936 47.595,113.672 47.826,113.672 47.778 C 113.672 47.659,112.684 48.517,109.810 51.131 C 107.115 53.582,99.008 61.914,99.318 61.914 C 99.354 61.914,99.061 62.262,98.666 62.686 C 98.272 63.111,97.729 63.731,97.461 64.063 C 97.192 64.396,96.882 64.773,96.771 64.902 C 96.660 65.031,96.357 65.444,96.098 65.820 C 95.839 66.196,95.433 66.690,95.195 66.917 C 94.958 67.143,94.622 67.605,94.447 67.942 C 94.273 68.279,94.045 68.555,93.940 68.555 C 93.836 68.555,93.750 68.647,93.750 68.759 C 93.750 68.871,93.530 69.183,93.262 69.451 C 92.993 69.720,92.773 70.023,92.773 70.126 C 92.773 70.228,92.456 70.663,92.067 71.093 C 91.679 71.523,91.419 71.875,91.490 71.875 C 91.561 71.875,91.180 72.418,90.643 73.081 C 90.107 73.744,89.707 74.350,89.755 74.428 C 89.802 74.505,89.698 74.624,89.522 74.691 C 89.346 74.759,89.251 74.863,89.311 74.923 C 89.371 74.983,89.292 75.179,89.135 75.358 C 88.649 75.911,87.519 77.734,87.660 77.737 C 87.733 77.739,87.703 77.805,87.593 77.884 C 87.330 78.073,86.737 78.991,86.183 80.069 C 85.937 80.547,85.671 80.986,85.591 81.045 C 85.511 81.104,85.271 81.504,85.058 81.934 C 84.845 82.363,84.582 82.837,84.474 82.987 C 83.839 83.866,81.284 88.845,79.754 92.188 C 79.483 92.778,79.182 93.414,79.084 93.601 C 78.986 93.787,78.906 94.073,78.906 94.236 C 78.906 94.398,78.813 94.531,78.699 94.531 C 78.586 94.531,78.543 94.613,78.605 94.713 C 78.667 94.813,78.628 94.950,78.519 95.018 C 78.410 95.085,78.320 95.304,78.320 95.503 C 78.320 95.703,78.235 95.895,78.131 95.931 C 78.026 95.967,77.910 96.172,77.872 96.387 C 77.834 96.602,77.671 97.085,77.510 97.461 C 77.349 97.837,77.013 98.672,76.763 99.316 C 76.513 99.961,76.056 101.126,75.746 101.905 C 75.225 103.217,74.083 106.549,73.923 107.227 C 73.885 107.388,73.620 108.267,73.336 109.180 C 72.780 110.960,72.286 112.746,72.173 113.379 C 72.134 113.594,72.088 113.770,72.071 113.770 C 72.053 113.770,71.999 114.033,71.951 114.355 C 71.902 114.678,71.737 115.337,71.584 115.820 C 71.430 116.304,71.125 117.534,70.906 118.555 C 70.687 119.575,70.421 120.806,70.316 121.289 C 70.210 121.772,70.075 122.476,70.017 122.852 C 69.958 123.228,69.829 124.019,69.729 124.609 C 69.630 125.200,69.497 126.079,69.434 126.563 C 69.370 127.046,69.237 127.925,69.138 128.516 C 69.038 129.106,68.910 130.073,68.852 130.664 C 68.794 131.255,68.701 132.134,68.644 132.617 C 68.476 134.056,68.375 135.159,68.251 136.914 C 68.187 137.827,68.104 138.882,68.066 139.258 C 67.967 140.257,67.963 151.669,68.062 152.930 C 68.108 153.521,68.193 154.795,68.249 155.762 C 68.369 157.815,68.534 159.661,68.660 160.352 C 68.788 161.048,68.936 162.233,69.052 163.474 C 69.156 164.595,69.294 165.520,69.431 166.016 C 69.475 166.177,69.561 166.660,69.622 167.090 C 69.848 168.685,70.500 172.127,71.046 174.609 C 71.223 175.415,71.387 176.162,71.409 176.270 C 71.432 176.377,71.594 177.036,71.770 177.734 C 71.946 178.433,72.122 179.136,72.163 179.297 C 72.203 179.458,72.249 179.590,72.266 179.590 C 72.282 179.590,72.323 179.722,72.356 179.883 C 72.389 180.044,72.575 180.703,72.769 181.348 C 72.962 181.992,73.129 182.607,73.140 182.715 C 73.150 182.822,73.316 183.394,73.507 183.984 C 73.699 184.575,73.982 185.526,74.136 186.096 C 74.290 186.667,74.591 187.519,74.805 187.990 C 75.020 188.461,75.195 188.965,75.195 189.110 C 75.195 189.256,75.268 189.458,75.356 189.561 C 75.445 189.663,75.683 190.273,75.887 190.918 C 76.090 191.563,76.370 192.263,76.507 192.475 C 76.645 192.687,76.758 193.055,76.758 193.294 C 76.758 193.532,76.846 193.781,76.953 193.848 C 77.061 193.914,77.148 194.139,77.148 194.347 C 77.148 194.556,77.220 194.727,77.308 194.727 C 77.396 194.727,77.624 195.222,77.815 195.828 C 78.006 196.433,78.329 197.227,78.534 197.591 C 78.739 197.956,78.906 198.383,78.906 198.541 C 78.906 198.699,78.980 198.828,79.070 198.828 C 79.161 198.828,79.357 199.202,79.507 199.658 C 79.658 200.115,80.462 201.807,81.296 203.418 C 82.129 205.029,82.812 206.458,82.812 206.592 C 82.812 206.726,82.915 206.836,83.040 206.836 C 83.166 206.836,83.212 206.892,83.144 206.960 C 83.075 207.029,83.215 207.357,83.453 207.690 C 83.921 208.344,85.002 210.273,85.446 211.246 C 85.596 211.577,85.857 211.961,86.024 212.100 C 86.191 212.239,86.328 212.463,86.328 212.598 C 86.328 212.732,86.459 212.951,86.619 213.084 C 86.779 213.217,86.862 213.403,86.803 213.499 C 86.744 213.594,86.783 213.672,86.889 213.672 C 86.996 213.672,87.139 213.847,87.207 214.061 C 87.275 214.276,87.439 214.561,87.571 214.696 C 87.704 214.831,88.099 215.446,88.450 216.062 C 88.801 216.678,89.550 217.826,90.114 218.613 C 90.679 219.399,91.200 220.170,91.273 220.324 C 91.346 220.479,91.692 220.972,92.041 221.420 C 92.390 221.869,93.223 222.987,93.891 223.905 C 94.559 224.824,95.263 225.743,95.454 225.948 C 95.645 226.153,95.977 226.552,96.191 226.834 C 96.693 227.493,97.827 228.835,98.380 229.424 C 98.617 229.676,98.778 229.883,98.738 229.883 C 98.631 229.883,99.773 231.181,100.830 232.261 C 101.340 232.782,101.758 233.257,101.758 233.317 C 101.758 233.581,111.184 242.773,111.454 242.773 C 111.499 242.773,111.841 243.078,112.214 243.451 C 112.586 243.823,112.891 244.091,112.891 244.045 C 112.891 244.000,113.093 244.157,113.340 244.394 C 114.244 245.261,115.234 246.100,115.234 245.999 C 115.234 245.902,115.786 246.356,116.959 247.417 C 117.230 247.662,117.743 248.042,118.100 248.263 C 118.458 248.484,118.750 248.745,118.750 248.844 C 118.750 248.943,118.841 249.023,118.952 249.023 C 119.064 249.023,119.745 249.465,120.466 250.004 C 121.187 250.543,121.865 251.049,121.973 251.127 C 122.080 251.205,122.607 251.600,123.145 252.005 C 123.682 252.409,124.209 252.752,124.316 252.767 C 124.424 252.781,124.619 252.934,124.750 253.106 C 124.881 253.277,124.990 253.348,124.994 253.264 C 124.997 253.179,125.236 253.328,125.524 253.595 C 125.812 253.862,126.120 254.036,126.207 253.982 C 126.295 253.928,126.367 253.978,126.367 254.095 C 126.367 254.211,126.591 254.392,126.865 254.496 C 127.139 254.600,127.929 255.081,128.622 255.565 C 129.314 256.049,129.963 256.445,130.063 256.445 C 130.164 256.445,130.362 256.555,130.504 256.689 C 130.833 257.000,132.217 257.804,132.666 257.945 C 132.854 258.005,133.008 258.131,133.008 258.226 C 133.008 258.321,133.146 258.398,133.314 258.398 C 133.482 258.398,133.900 258.607,134.242 258.861 C 134.584 259.116,136.753 260.247,139.063 261.375 C 144.778 264.168,145.400 264.453,145.771 264.453 C 145.949 264.453,146.094 264.537,146.094 264.640 C 146.094 264.742,146.402 264.884,146.780 264.955 C 147.157 265.025,147.513 265.161,147.572 265.257 C 147.631 265.352,147.850 265.430,148.058 265.430 C 148.267 265.430,148.438 265.518,148.438 265.625 C 148.438 265.732,148.657 265.820,148.926 265.820 C 149.194 265.820,149.414 265.908,149.414 266.016 C 149.414 266.123,149.568 266.211,149.756 266.212 C 149.944 266.213,150.349 266.345,150.657 266.505 C 150.965 266.666,151.289 266.797,151.377 266.797 C 151.465 266.797,151.784 266.899,152.087 267.025 C 152.747 267.298,152.690 267.279,153.418 267.475 C 153.740 267.561,154.092 267.685,154.199 267.749 C 154.307 267.813,154.438 267.874,154.492 267.884 C 154.546 267.895,154.810 267.995,155.078 268.107 C 155.347 268.219,156.094 268.464,156.738 268.651 C 157.383 268.838,158.218 269.110,158.594 269.254 C 159.188 269.482,160.626 269.904,161.236 270.029 C 161.346 270.051,161.918 270.207,162.505 270.375 C 164.024 270.808,167.834 271.776,168.066 271.787 C 168.174 271.792,168.877 271.938,169.629 272.112 C 171.281 272.493,172.937 272.823,173.730 272.930 C 174.053 272.973,174.448 273.057,174.609 273.117 C 174.771 273.176,175.298 273.269,175.781 273.323 C 176.812 273.439,178.023 273.609,178.711 273.736 C 179.424 273.867,183.310 274.331,184.180 274.389 C 185.400 274.471,186.895 274.590,188.477 274.732 C 190.707 274.933,201.965 274.938,204.980 274.740 C 207.303 274.588,207.959 274.527,210.645 274.213 C 213.442 273.887,213.875 273.832,214.424 273.738 C 214.709 273.689,215.864 273.513,216.992 273.346 C 219.677 272.948,220.102 272.872,220.801 272.660 C 221.123 272.562,221.694 272.436,222.070 272.380 C 222.446 272.324,223.171 272.187,223.682 272.076 C 224.192 271.966,225.027 271.786,225.537 271.678 C 226.047 271.570,227.344 271.253,228.418 270.974 C 229.492 270.695,230.459 270.449,230.566 270.426 C 230.674 270.404,231.289 270.227,231.934 270.034 C 232.578 269.841,233.193 269.668,233.301 269.651 C 233.408 269.634,233.760 269.522,234.082 269.403 C 234.404 269.284,235.063 269.077,235.547 268.944 C 237.220 268.483,238.380 268.112,238.574 267.974 C 238.682 267.898,239.409 267.634,240.190 267.388 C 240.971 267.142,241.658 266.864,241.715 266.771 C 241.773 266.678,241.963 266.602,242.137 266.602 C 242.539 266.602,245.583 265.382,245.671 265.186 C 245.706 265.105,245.894 265.039,246.087 265.039 C 246.279 265.039,247.041 264.733,247.779 264.359 C 248.517 263.985,249.264 263.678,249.439 263.676 C 249.614 263.674,249.866 263.540,250.000 263.379 C 250.134 263.218,250.326 263.086,250.427 263.086 C 250.528 263.086,251.091 262.866,251.678 262.598 C 252.266 262.329,252.831 262.109,252.935 262.109 C 253.040 262.109,253.125 262.007,253.125 261.882 C 253.125 261.756,253.176 261.704,253.238 261.766 C 253.356 261.885,255.691 260.795,255.859 260.542 C 255.913 260.461,256.265 260.256,256.641 260.084 C 257.017 259.913,257.456 259.698,257.617 259.605 C 258.187 259.278,258.701 258.998,259.570 258.544 C 260.801 257.900,261.368 257.558,261.676 257.275 C 261.822 257.141,262.054 257.031,262.191 257.031 C 262.328 257.031,262.597 256.858,262.789 256.645 C 262.981 256.433,263.214 256.306,263.307 256.364 C 263.400 256.421,263.477 256.381,263.477 256.275 C 263.477 256.168,263.674 256.018,263.916 255.942 C 264.158 255.866,264.627 255.596,264.960 255.343 C 265.292 255.090,265.653 254.883,265.761 254.883 C 265.870 254.883,266.196 254.663,266.485 254.395 C 266.775 254.126,267.055 253.906,267.108 253.906 C 267.161 253.906,267.680 253.555,268.262 253.125 C 268.843 252.695,269.374 252.344,269.441 252.344 C 269.508 252.344,269.951 252.026,270.426 251.637 C 270.901 251.248,271.289 250.980,271.289 251.041 C 271.289 251.103,271.522 250.938,271.806 250.674 C 272.090 250.411,272.409 250.195,272.515 250.195 C 272.621 250.195,272.872 250.006,273.073 249.775 C 273.273 249.544,273.438 249.431,273.438 249.525 C 273.438 249.619,273.575 249.499,273.744 249.259 C 273.912 249.018,274.123 248.867,274.212 248.921 C 274.300 248.976,274.424 248.890,274.485 248.729 C 274.547 248.569,274.724 248.438,274.880 248.438 C 275.035 248.438,275.192 248.372,275.228 248.291 C 275.264 248.210,275.996 247.575,276.855 246.879 C 277.715 246.183,278.525 245.480,278.656 245.316 C 278.787 245.153,278.897 245.088,278.900 245.173 C 278.903 245.257,279.214 245.018,279.590 244.642 C 279.966 244.266,280.273 243.995,280.273 244.041 C 280.273 244.086,280.477 243.929,280.726 243.692 C 280.976 243.455,281.693 242.822,282.320 242.285 C 283.653 241.144,291.684 233.203,291.505 233.203 C 291.438 233.203,291.806 232.786,292.322 232.277 C 292.839 231.768,293.262 231.293,293.262 231.221 C 293.262 231.150,293.569 230.782,293.945 230.403 C 294.321 230.025,294.937 229.346,295.313 228.895 C 295.688 228.444,296.112 227.955,296.254 227.807 C 296.396 227.660,296.458 227.539,296.391 227.539 C 296.324 227.539,296.506 227.319,296.796 227.051 C 297.086 226.782,297.261 226.562,297.186 226.563 C 297.111 226.563,297.254 226.365,297.503 226.123 C 298.119 225.527,299.023 224.290,299.023 224.046 C 299.023 223.937,299.138 223.777,299.278 223.691 C 299.419 223.605,299.792 223.184,300.107 222.754 C 300.423 222.324,300.726 221.929,300.780 221.875 C 301.045 221.613,302.148 219.889,302.148 219.737 C 302.148 219.642,302.225 219.535,302.319 219.499 C 302.413 219.463,302.941 218.730,303.493 217.871 C 304.044 217.012,304.671 216.103,304.885 215.852 C 305.099 215.601,305.328 215.183,305.393 214.924 C 305.458 214.665,305.585 214.453,305.676 214.453 C 305.767 214.453,305.996 214.124,306.186 213.721 C 306.375 213.318,306.602 212.900,306.690 212.793 C 306.917 212.514,308.180 210.396,308.668 209.473 C 308.896 209.043,309.192 208.575,309.326 208.433 C 309.460 208.291,309.570 208.016,309.570 207.822 C 309.570 207.628,309.699 207.363,309.856 207.233 C 310.013 207.103,310.201 206.806,310.274 206.574 C 310.347 206.342,310.610 205.852,310.859 205.485 C 311.107 205.118,311.266 204.744,311.210 204.655 C 311.155 204.565,311.192 204.492,311.293 204.492 C 311.488 204.492,312.039 203.323,311.961 203.076 C 311.935 202.996,311.996 202.930,312.096 202.930 C 312.196 202.930,312.339 202.732,312.412 202.490 C 312.599 201.878,313.256 200.353,313.484 200.000 C 313.589 199.839,313.727 199.575,313.792 199.414 C 313.856 199.253,314.120 198.673,314.377 198.125 C 314.633 197.577,314.844 196.984,314.844 196.807 C 314.844 196.629,314.932 196.484,315.039 196.484 C 315.146 196.484,315.234 196.385,315.234 196.264 C 315.234 196.143,315.537 195.287,315.906 194.360 C 316.692 192.390,317.023 191.522,317.012 191.458 C 317.007 191.432,317.182 190.995,317.401 190.486 C 317.790 189.577,319.273 185.227,319.717 183.691 C 320.097 182.379,320.539 180.778,320.608 180.469 C 320.644 180.308,320.687 180.176,320.703 180.176 C 320.720 180.176,320.761 180.044,320.796 179.883 C 320.830 179.722,321.095 178.667,321.385 177.539 C 321.675 176.411,321.951 175.269,321.997 175.000 C 322.044 174.731,322.127 174.384,322.183 174.228 C 322.301 173.897,323.009 170.333,323.155 169.336 C 323.210 168.960,323.334 168.257,323.432 167.773 C 323.665 166.615,324.005 164.551,324.122 163.574 C 324.369 161.529,324.710 158.192,324.894 156.020 C 325.451 149.452,325.366 139.250,324.706 133.398 C 324.639 132.808,324.554 132.017,324.516 131.641 C 324.399 130.475,324.211 129.061,323.983 127.637 C 323.862 126.885,323.749 126.050,323.730 125.781 C 323.711 125.513,323.636 125.029,323.563 124.707 C 323.347 123.751,323.246 123.209,323.054 121.973 C 322.847 120.644,322.784 120.342,322.480 119.213 C 322.361 118.770,322.229 118.155,322.188 117.847 C 322.087 117.106,320.792 111.953,320.549 111.328 C 320.445 111.060,320.350 110.774,320.339 110.692 C 320.283 110.276,320.028 109.350,319.681 108.301 C 319.468 107.656,319.169 106.653,319.016 106.072 C 318.864 105.491,318.619 104.744,318.472 104.412 C 318.208 103.814,317.929 103.118,317.878 102.930 C 317.659 102.120,317.169 100.779,316.700 99.707 C 316.479 99.201,316.229 98.577,316.113 98.242 C 315.881 97.569,315.610 96.928,314.917 95.410 C 314.623 94.766,314.371 94.194,314.357 94.141 C 314.231 93.633,309.825 84.825,309.570 84.570 C 309.485 84.485,309.218 84.008,308.315 82.324 C 308.200 82.109,308.052 81.890,307.986 81.836 C 307.921 81.782,307.711 81.431,307.520 81.055 C 307.328 80.679,307.118 80.327,307.053 80.273 C 306.987 80.220,306.801 79.912,306.641 79.590 C 306.480 79.268,306.238 78.934,306.104 78.848 C 305.969 78.762,305.859 78.534,305.859 78.341 C 305.859 78.148,305.697 77.843,305.499 77.664 C 305.300 77.484,304.971 76.988,304.766 76.561 C 304.562 76.135,304.329 75.785,304.248 75.783 C 304.167 75.782,304.102 75.663,304.102 75.519 C 304.102 75.374,303.926 75.097,303.711 74.902 C 303.496 74.708,303.320 74.431,303.320 74.286 C 303.320 74.142,303.232 74.023,303.125 74.023 C 303.018 74.023,302.930 73.892,302.930 73.730 C 302.930 73.569,302.864 73.437,302.783 73.437 C 302.703 73.437,302.375 73.019,302.055 72.509 C 301.736 71.999,301.319 71.413,301.130 71.206 C 300.941 70.999,300.737 70.677,300.678 70.491 C 300.619 70.305,300.443 70.104,300.286 70.044 C 300.128 69.983,300.000 69.839,300.000 69.724 C 300.000 69.608,299.802 69.302,299.561 69.043 C 298.858 68.292,298.609 67.969,298.733 67.969 C 298.796 67.969,298.624 67.761,298.350 67.507 C 298.076 67.253,297.851 66.967,297.851 66.872 C 297.851 66.777,297.653 66.465,297.412 66.180 C 297.170 65.894,296.683 65.305,296.328 64.871 C 295.973 64.438,295.433 63.814,295.127 63.487 C 294.820 63.159,294.605 62.891,294.648 62.891 C 294.691 62.891,294.573 62.729,294.385 62.531 C 294.197 62.334,293.516 61.576,292.871 60.848 C 291.337 59.114,283.876 51.563,283.697 51.563 C 283.621 51.563,283.127 51.115,282.600 50.568 C 282.072 50.020,281.641 49.622,281.641 49.682 C 281.641 49.742,281.392 49.553,281.088 49.261 C 280.784 48.969,280.026 48.291,279.403 47.754 C 278.781 47.217,278.151 46.661,278.003 46.519 C 277.855 46.377,277.734 46.308,277.734 46.366 C 277.734 46.424,277.449 46.212,277.100 45.895 C 275.970 44.870,275.816 44.757,275.700 44.873 C 275.637 44.936,275.586 44.899,275.586 44.792 C 275.586 44.684,275.103 44.263,274.512 43.856 C 273.921 43.449,273.438 43.039,273.438 42.945 C 273.438 42.851,273.319 42.773,273.175 42.773 C 273.030 42.773,272.753 42.598,272.559 42.383 C 272.364 42.168,272.127 41.992,272.031 41.992 C 271.936 41.992,271.638 41.772,271.369 41.504 C 271.100 41.235,270.766 41.016,270.626 41.016 C 270.485 41.016,270.095 40.752,269.757 40.430 C 269.420 40.107,269.055 39.844,268.947 39.844 C 268.839 39.844,268.750 39.771,268.750 39.681 C 268.750 39.592,268.508 39.395,268.213 39.242 C 267.917 39.090,267.632 38.921,267.578 38.867 C 267.386 38.675,266.302 38.060,265.967 37.953 C 265.779 37.894,265.625 37.772,265.625 37.682 C 265.625 37.592,265.295 37.365,264.893 37.178 C 264.490 36.991,264.089 36.721,264.002 36.579 C 263.914 36.436,263.774 36.363,263.689 36.415 C 263.605 36.467,263.347 36.334,263.116 36.118 C 262.884 35.903,262.695 35.790,262.695 35.866 C 262.695 35.943,262.498 35.829,262.256 35.613 C 262.014 35.396,261.531 35.107,261.182 34.969 C 260.833 34.831,260.547 34.641,260.547 34.547 C 260.547 34.452,260.409 34.375,260.241 34.375 C 260.073 34.375,259.647 34.155,259.295 33.887 C 258.943 33.618,258.557 33.398,258.439 33.398 C 258.320 33.398,257.832 33.135,257.355 32.813 C 256.877 32.490,256.423 32.227,256.345 32.227 C 256.223 32.227,252.369 30.330,250.684 29.440 C 249.340 28.730,247.489 27.930,247.193 27.930 C 247.018 27.930,246.875 27.842,246.875 27.734 C 246.875 27.627,246.778 27.539,246.660 27.539 C 246.542 27.539,246.169 27.418,245.830 27.269 C 244.244 26.575,243.163 26.172,242.884 26.172 C 242.716 26.172,242.578 26.095,242.578 26.001 C 242.578 25.854,241.647 25.572,241.281 25.607 C 241.213 25.614,241.103 25.546,241.037 25.455 C 240.972 25.365,240.391 25.122,239.746 24.915 C 239.102 24.707,238.464 24.455,238.330 24.354 C 238.196 24.254,238.086 24.219,238.086 24.278 C 238.086 24.337,237.559 24.178,236.914 23.926 C 236.270 23.673,235.742 23.515,235.742 23.574 C 235.742 23.632,235.632 23.590,235.498 23.479 C 235.364 23.368,234.902 23.214,234.473 23.136 C 234.043 23.059,233.604 22.944,233.496 22.880 C 233.389 22.816,233.213 22.757,233.105 22.748 C 232.998 22.739,232.778 22.673,232.617 22.602 C 232.094 22.372,227.301 21.123,225.781 20.821 C 225.513 20.768,224.766 20.596,224.121 20.438 C 222.876 20.133,220.214 19.583,219.238 19.429 C 218.916 19.378,218.345 19.276,217.969 19.203 C 217.593 19.130,217.109 19.058,216.895 19.042 C 216.680 19.026,216.108 18.940,215.625 18.849 C 215.142 18.759,214.614 18.666,214.453 18.643 C 213.293 18.480,211.877 18.309,211.133 18.242 C 210.649 18.199,209.858 18.125,209.375 18.077 C 206.829 17.827,204.647 17.684,200.488 17.495 C 195.204 17.255,192.252 17.188,192.133 17.307 M227.552 64.063 C 227.786 67.151,227.123 72.349,226.169 74.902 C 225.782 75.940,225.287 77.145,224.872 78.064 C 224.620 78.621,224.414 79.157,224.414 79.255 C 224.414 79.352,224.238 79.591,224.023 79.785 C 223.809 79.980,223.633 80.301,223.633 80.499 C 223.633 80.697,223.545 80.859,223.438 80.859 C 223.330 80.859,223.242 80.975,223.242 81.116 C 223.242 81.256,223.066 81.560,222.852 81.791 C 222.637 82.022,222.461 82.296,222.461 82.402 C 222.461 82.507,222.197 82.882,221.875 83.235 C 221.553 83.587,221.289 83.955,221.289 84.051 C 221.289 84.250,220.687 84.975,218.683 87.190 C 216.417 89.696,215.867 90.234,215.574 90.234 C 215.422 90.234,215.197 90.454,215.075 90.723 C 214.952 90.991,214.738 91.211,214.598 91.211 C 214.459 91.211,214.206 91.365,214.036 91.553 C 213.582 92.056,212.910 92.578,212.717 92.578 C 212.624 92.578,212.433 92.716,212.293 92.885 C 212.153 93.054,211.724 93.364,211.341 93.574 C 210.958 93.784,210.381 94.130,210.059 94.342 C 209.736 94.554,209.165 94.859,208.789 95.020 C 208.413 95.182,207.666 95.529,207.129 95.792 C 206.592 96.055,205.889 96.312,205.566 96.362 C 205.244 96.413,204.497 96.629,203.906 96.842 C 202.648 97.295,197.381 97.624,196.875 97.281 C 196.381 96.947,196.533 91.139,197.082 89.355 C 197.314 88.604,197.569 87.593,197.650 87.109 C 197.730 86.626,197.982 85.835,198.210 85.352 C 198.438 84.868,198.626 84.307,198.629 84.104 C 198.631 83.901,198.885 83.325,199.193 82.823 C 199.502 82.322,199.818 81.711,199.896 81.466 C 200.073 80.908,201.406 78.636,201.608 78.548 C 201.690 78.512,201.758 78.397,201.758 78.291 C 201.758 78.185,201.978 77.811,202.246 77.459 C 202.515 77.107,202.734 76.733,202.734 76.629 C 202.734 76.525,202.998 76.188,203.320 75.879 C 203.643 75.570,203.906 75.202,203.906 75.061 C 203.906 74.920,204.038 74.805,204.199 74.805 C 204.360 74.805,204.492 74.720,204.492 74.616 C 204.492 74.512,204.778 74.126,205.127 73.758 C 206.028 72.807,207.451 71.359,207.910 70.925 C 208.891 69.997,212.269 67.578,212.584 67.578 C 212.668 67.578,212.998 67.358,213.317 67.090 C 213.636 66.821,214.066 66.602,214.273 66.602 C 214.479 66.602,214.822 66.428,215.034 66.216 C 215.246 66.004,215.664 65.772,215.962 65.700 C 216.260 65.628,216.855 65.389,217.285 65.168 C 219.040 64.266,222.105 63.315,224.609 62.898 C 225.415 62.763,226.162 62.624,226.270 62.588 C 227.193 62.278,227.439 62.561,227.552 64.063 M227.246 97.470 C 228.213 97.581,229.619 97.808,230.371 97.975 C 231.123 98.143,232.222 98.323,232.813 98.376 C 233.403 98.428,234.502 98.678,235.254 98.930 C 236.006 99.182,236.929 99.447,237.305 99.518 C 237.681 99.589,238.384 99.824,238.867 100.040 C 240.239 100.653,240.863 100.915,241.602 101.187 C 241.978 101.325,242.495 101.598,242.751 101.793 C 243.007 101.989,243.337 102.148,243.483 102.148 C 243.630 102.148,243.750 102.236,243.750 102.344 C 243.750 102.451,243.912 102.539,244.110 102.539 C 244.309 102.539,244.630 102.715,244.824 102.930 C 245.019 103.145,245.284 103.320,245.414 103.320 C 245.544 103.320,245.948 103.583,246.311 103.903 C 246.675 104.224,247.067 104.487,247.183 104.489 C 247.298 104.491,247.599 104.712,247.852 104.980 C 248.104 105.249,248.388 105.469,248.483 105.469 C 248.578 105.469,249.639 106.476,250.842 107.708 C 253.061 109.981,253.526 110.504,254.398 111.710 L 254.886 112.385 254.210 112.714 C 253.838 112.895,253.298 113.228,253.010 113.455 C 252.722 113.682,252.366 113.867,252.220 113.867 C 252.073 113.867,251.953 113.952,251.953 114.056 C 251.953 114.160,251.453 114.615,250.842 115.067 C 249.041 116.397,246.802 118.522,245.215 120.408 C 244.785 120.918,244.280 121.501,244.092 121.703 C 243.904 121.905,243.750 122.189,243.750 122.333 C 243.750 122.477,243.576 122.753,243.364 122.945 C 243.152 123.137,242.793 123.678,242.566 124.147 C 242.338 124.616,242.073 125.000,241.975 125.000 C 241.877 125.000,241.797 125.130,241.797 125.289 C 241.797 125.447,241.546 126.041,241.239 126.608 C 240.933 127.175,240.449 128.341,240.165 129.200 C 239.880 130.059,239.544 131.069,239.417 131.445 C 237.989 135.672,238.246 146.856,239.855 150.488 C 239.950 150.703,240.211 151.422,240.434 152.085 C 240.971 153.678,242.930 157.452,243.388 157.775 C 243.587 157.915,243.750 158.193,243.750 158.393 C 243.750 158.593,243.820 158.786,243.905 158.822 C 243.990 158.857,244.314 159.238,244.626 159.668 C 245.373 160.697,248.749 164.238,249.934 165.233 C 251.027 166.152,252.159 166.992,252.304 166.992 C 252.396 166.992,252.677 167.212,252.930 167.480 C 253.182 167.749,253.488 167.969,253.609 167.969 C 253.731 167.969,254.133 168.193,254.503 168.468 C 254.873 168.742,255.538 169.127,255.981 169.324 C 256.423 169.521,256.846 169.780,256.920 169.900 C 256.994 170.019,257.247 170.120,257.482 170.124 C 258.319 170.136,258.851 170.798,258.530 171.426 C 258.376 171.727,258.186 172.271,258.107 172.636 C 258.029 173.001,257.710 173.836,257.400 174.491 C 257.090 175.147,256.836 175.785,256.836 175.908 C 256.836 176.032,256.496 176.867,256.080 177.764 C 254.494 181.188,254.102 182.062,254.102 182.173 C 254.102 182.236,253.894 182.559,253.641 182.892 C 253.388 183.224,253.112 183.716,253.027 183.984 C 252.943 184.253,252.666 184.745,252.413 185.077 C 252.160 185.409,251.953 185.797,251.953 185.938 C 251.953 186.078,251.733 186.482,251.465 186.834 C 251.196 187.186,250.977 187.598,250.977 187.750 C 250.977 187.901,250.797 188.188,250.577 188.387 C 250.357 188.586,250.049 189.017,249.893 189.345 C 249.738 189.673,249.390 190.197,249.121 190.509 C 248.853 190.821,248.633 191.144,248.633 191.227 C 248.633 191.310,248.523 191.494,248.388 191.636 C 248.253 191.778,247.791 192.417,247.362 193.057 C 246.933 193.696,246.428 194.377,246.240 194.570 C 246.052 194.764,245.898 195.019,245.898 195.138 C 245.898 195.257,245.679 195.527,245.410 195.738 C 245.142 195.949,244.922 196.240,244.922 196.385 C 244.922 196.529,244.848 196.676,244.758 196.712 C 244.667 196.748,244.284 197.185,243.907 197.683 C 242.045 200.140,237.584 204.883,237.135 204.883 C 237.026 204.883,236.815 205.056,236.666 205.268 C 236.375 205.683,234.199 207.225,233.902 207.226 C 233.803 207.226,233.560 207.374,233.361 207.553 C 232.941 207.933,230.527 208.984,230.074 208.984 C 229.904 208.984,229.682 209.067,229.580 209.168 C 229.325 209.421,227.178 209.793,225.293 209.910 C 223.064 210.050,220.634 209.680,217.383 208.707 C 216.899 208.562,215.955 208.285,215.283 208.091 C 214.612 207.897,214.063 207.679,214.063 207.606 C 214.063 207.532,213.645 207.359,213.135 207.221 C 212.625 207.083,211.792 206.764,211.286 206.512 C 210.779 206.260,210.154 206.055,209.896 206.055 C 209.465 206.055,207.792 205.483,206.985 205.061 C 206.799 204.963,206.299 204.883,205.875 204.883 C 205.451 204.883,204.461 204.747,203.675 204.582 C 201.352 204.092,198.974 204.024,196.777 204.384 C 195.703 204.560,194.165 204.782,193.359 204.878 C 192.554 204.974,191.347 205.278,190.678 205.554 C 190.008 205.829,189.274 206.055,189.046 206.055 C 188.818 206.055,188.213 206.265,187.701 206.522 C 187.190 206.778,186.474 207.051,186.110 207.127 C 185.747 207.202,185.159 207.432,184.803 207.636 C 184.448 207.841,184.029 208.008,183.873 208.008 C 183.716 208.008,183.436 208.083,183.249 208.176 C 182.924 208.337,182.207 208.563,179.883 209.239 C 174.202 210.891,170.093 210.328,164.941 207.193 C 164.404 206.867,163.895 206.477,163.809 206.327 C 163.723 206.177,163.562 206.055,163.451 206.055 C 163.128 206.055,158.605 202.034,158.597 201.740 C 158.595 201.676,158.107 201.105,157.513 200.470 C 155.763 198.603,155.664 198.488,155.661 198.312 C 155.659 198.220,155.439 197.938,155.172 197.685 C 154.906 197.432,154.688 197.102,154.688 196.952 C 154.688 196.802,154.554 196.680,154.390 196.680 C 154.227 196.680,153.985 196.438,153.853 196.143 C 153.721 195.847,153.372 195.367,153.076 195.075 C 152.781 194.783,152.539 194.466,152.539 194.371 C 152.539 194.276,152.319 193.961,152.051 193.671 C 151.782 193.381,151.563 193.057,151.563 192.950 C 151.563 192.844,151.335 192.519,151.057 192.228 C 150.778 191.937,150.462 191.458,150.354 191.162 C 150.246 190.867,150.034 190.625,149.883 190.625 C 149.733 190.625,149.609 190.529,149.609 190.411 C 149.609 190.293,149.126 189.471,148.535 188.583 C 147.944 187.695,147.461 186.908,147.461 186.835 C 147.461 186.762,147.279 186.508,147.057 186.271 C 146.835 186.034,146.604 185.598,146.544 185.303 C 146.484 185.007,146.365 184.766,146.279 184.766 C 146.193 184.766,145.885 184.265,145.596 183.654 C 145.307 183.043,144.952 182.425,144.808 182.280 C 144.664 182.136,144.462 181.715,144.360 181.344 C 144.258 180.973,143.991 180.437,143.767 180.153 C 143.543 179.868,143.359 179.490,143.359 179.314 C 143.359 179.138,143.224 178.800,143.059 178.565 C 142.894 178.329,142.402 177.277,141.966 176.226 C 141.530 175.176,141.106 174.229,141.025 174.121 C 140.943 174.014,140.826 173.750,140.764 173.535 C 140.702 173.320,140.500 172.749,140.316 172.266 C 139.424 169.921,138.619 167.569,138.366 166.568 C 138.211 165.959,137.910 165.051,137.695 164.550 C 137.480 164.049,137.305 163.414,137.305 163.139 C 137.305 162.863,137.041 161.815,136.719 160.809 C 136.396 159.803,136.133 158.716,136.133 158.393 C 136.133 158.071,135.921 156.907,135.661 155.808 C 135.402 154.708,135.094 152.710,134.977 151.367 C 134.859 150.024,134.678 148.135,134.573 147.168 C 134.334 144.971,134.333 139.253,134.571 137.305 C 134.669 136.499,134.851 134.829,134.976 133.594 C 135.100 132.358,135.411 130.621,135.667 129.733 C 135.923 128.846,136.133 127.896,136.133 127.623 C 136.133 127.350,136.396 126.507,136.719 125.750 C 137.041 124.993,137.305 124.203,137.305 123.995 C 137.305 123.787,137.480 123.273,137.695 122.853 C 137.909 122.432,138.267 121.601,138.490 121.005 C 138.713 120.409,138.977 119.922,139.077 119.922 C 139.176 119.922,139.258 119.792,139.258 119.633 C 139.258 119.354,139.941 118.004,140.793 116.602 C 141.021 116.226,141.268 115.786,141.342 115.625 C 141.417 115.464,141.834 114.849,142.270 114.258 C 142.706 113.667,143.261 112.895,143.503 112.542 C 144.122 111.639,144.358 111.354,144.971 110.774 C 145.266 110.494,145.508 110.189,145.508 110.097 C 145.508 109.949,146.766 108.730,148.517 107.181 C 148.849 106.887,149.295 106.492,149.507 106.302 C 149.720 106.112,150.247 105.701,150.679 105.388 C 151.111 105.075,151.494 104.746,151.530 104.656 C 151.566 104.566,151.760 104.492,151.963 104.492 C 152.165 104.492,152.421 104.322,152.532 104.115 C 152.643 103.907,152.932 103.677,153.174 103.604 C 153.415 103.530,153.877 103.281,154.199 103.050 C 154.521 102.818,155.049 102.502,155.371 102.347 C 155.693 102.192,156.177 101.923,156.445 101.750 C 156.714 101.577,157.241 101.321,157.617 101.180 C 157.993 101.040,158.652 100.770,159.082 100.580 C 160.969 99.745,161.268 99.631,161.914 99.504 C 162.290 99.430,163.228 99.160,163.999 98.904 C 164.770 98.647,165.745 98.438,166.165 98.438 C 166.585 98.438,167.800 98.306,168.865 98.146 C 171.148 97.802,173.277 97.773,174.902 98.064 C 175.547 98.179,176.733 98.341,177.539 98.425 C 178.345 98.508,179.347 98.722,179.767 98.900 C 180.187 99.078,181.110 99.356,181.818 99.516 C 182.526 99.677,183.281 99.895,183.496 100.003 C 183.856 100.182,186.372 101.096,189.746 102.274 C 190.498 102.537,191.377 102.870,191.699 103.016 C 192.021 103.161,192.659 103.341,193.117 103.415 C 193.574 103.490,194.409 103.721,194.972 103.928 C 196.679 104.559,197.986 104.609,199.421 104.099 C 200.106 103.856,201.109 103.544,201.651 103.407 C 202.775 103.121,206.441 101.869,206.971 101.589 C 207.165 101.487,207.764 101.269,208.301 101.104 C 208.838 100.939,209.893 100.570,210.645 100.283 C 211.396 99.997,212.495 99.648,213.086 99.509 C 213.677 99.370,214.663 99.072,215.278 98.847 C 215.893 98.622,216.670 98.438,217.004 98.438 C 217.338 98.438,218.296 98.262,219.134 98.048 C 222.026 97.310,224.383 97.142,227.246 97.470 " stroke="none" fill="#fcbcb4" fill-rule="evenodd"></path><path id="path2" d="M224.368 97.404 C 224.610 97.450,224.962 97.449,225.149 97.400 C 225.335 97.351,225.137 97.313,224.707 97.315 C 224.277 97.317,224.125 97.357,224.368 97.404 " stroke="none" fill="#fcdcd4" fill-rule="evenodd"></path><path id="path3" d="M196.530 94.727 C 196.530 95.103,196.570 95.256,196.619 95.068 C 196.668 94.880,196.668 94.573,196.619 94.385 C 196.570 94.197,196.530 94.351,196.530 94.727 M134.434 140.625 C 134.434 141.216,134.470 141.458,134.515 141.162 C 134.560 140.867,134.560 140.383,134.515 140.088 C 134.470 139.792,134.434 140.034,134.434 140.625 M134.434 143.750 C 134.434 144.341,134.470 144.583,134.515 144.287 C 134.560 143.992,134.560 143.508,134.515 143.213 C 134.470 142.917,134.434 143.159,134.434 143.750 M173.486 210.101 C 173.782 210.146,174.265 210.146,174.561 210.101 C 174.856 210.056,174.614 210.019,174.023 210.019 C 173.433 210.019,173.191 210.056,173.486 210.101 " stroke="none" fill="#fcdcdc" fill-rule="evenodd"></path><path id="path4" d="" stroke="none" fill="#fcd1ce" fill-rule="evenodd"></path></g></svg>